<svg width="161" height="112" viewBox="0 0 161 112" fill="none" xmlns="http://www.w3.org/2000/svg">
<g clip-path="url(#clip0_1517_7971)">
<path d="M55.71 16.7998L88.9313 25.3652C90.3344 25.7269 91.7559 24.8501 92.0464 23.4461L95.6003 6.37046C95.8414 5.21165 95.2357 4.04058 94.1417 3.56234C87.8188 0.821659 66.8848 -6.28449 54.2205 13.0168C53.281 14.4454 54.0536 16.3706 55.7162 16.7998H55.71Z" fill="#EAAB28"/>
<path d="M81.3723 54.415L71.613 21.9806C71.1989 20.6072 69.7093 19.853 68.3434 20.3313L51.7049 26.1867C50.611 26.5729 49.9187 27.6398 50.03 28.7863C50.6604 35.2609 54.5604 55.6168 78.7579 57.6401C80.5256 57.7872 81.8853 56.1073 81.3785 54.4212L81.3723 54.415Z" fill="#83E8B7"/>
<path d="M101.534 14.3717L77.4538 38.3572C76.434 39.375 76.4772 41.0366 77.5527 41.9931L90.6805 53.7038C91.5396 54.4702 92.819 54.5683 93.7832 53.9245C99.2222 50.2825 115.391 37.1739 105.638 15.1135C104.927 13.501 102.789 13.1209 101.534 14.3655V14.3717Z" fill="#BAC2FC"/>
<path d="M0.510132 94.1335C0.367976 93.9924 0.299988 93.7717 0.299988 93.459V79.774C0.299988 79.4675 0.367976 79.2406 0.510132 79.0996C0.652288 78.9586 0.874794 78.8911 1.19001 78.8911H5.94916C8.24838 78.8911 10.0099 79.5594 11.2337 80.8899C12.4574 82.2204 13.0693 84.1334 13.0693 86.6165C13.0693 89.0997 12.4574 91.0126 11.2337 92.3431C10.0099 93.6736 8.24838 94.3419 5.94916 94.3419H1.19001C0.880974 94.3419 0.652288 94.2745 0.510132 94.1335ZM5.94916 91.4541C7.13585 91.4541 8.03205 91.0433 8.64394 90.2156C9.24965 89.394 9.55869 88.1923 9.55869 86.6165C9.55869 85.0408 9.25584 83.8452 8.64394 83.0175C8.03824 82.1959 7.13585 81.7789 5.94916 81.7789H3.74882V91.448H5.94916V91.4541Z" fill="black"/>
<path d="M16.0855 94.1335C15.9434 93.9924 15.8754 93.7717 15.8754 93.459V79.774C15.8754 79.4675 15.9434 79.2406 16.0855 79.0996C16.2277 78.9586 16.4502 78.8911 16.7654 78.8911H24.5778C24.8127 78.8911 24.9857 78.977 25.0908 79.1548C25.1959 79.3326 25.2453 79.6085 25.2453 79.9947V80.6814C25.2453 81.0616 25.1959 81.3436 25.0908 81.5214C24.9857 81.6992 24.8189 81.7851 24.5778 81.7851H19.3057V84.9856H23.9783C24.2131 84.9856 24.3862 85.0714 24.4913 85.2492C24.5963 85.427 24.6458 85.703 24.6458 86.0892V86.7759C24.6458 87.1561 24.5963 87.4381 24.4913 87.6159C24.3862 87.7937 24.2193 87.8796 23.9783 87.8796H19.3057V91.4541H24.6025C24.8374 91.4541 25.0105 91.5399 25.1155 91.7177C25.2206 91.8955 25.27 92.1715 25.27 92.5577V93.2444C25.27 93.6246 25.2206 93.9066 25.1155 94.0844C25.0105 94.2622 24.8436 94.3481 24.6025 94.3481H16.7716C16.4625 94.3481 16.2338 94.2806 16.0917 94.1396L16.0855 94.1335Z" fill="black"/>
<path d="M29.4049 94.2132C28.62 94.0048 28.0019 93.7411 27.5569 93.4162C27.1428 93.1341 26.9327 92.8582 26.9327 92.5762C26.9327 92.3555 27.013 92.0918 27.1799 91.7791C27.3406 91.4726 27.5384 91.1967 27.7609 90.9637C27.9834 90.7307 28.1688 90.608 28.3171 90.608C28.4037 90.608 28.6138 90.6939 28.9414 90.8717C29.4173 91.1047 29.8438 91.2886 30.2332 91.4235C30.6225 91.5584 31.0737 91.6197 31.5929 91.6197C32.1739 91.6197 32.6622 91.5032 33.0701 91.2764C33.478 91.0495 33.682 90.6448 33.682 90.0746C33.682 89.6025 33.4904 89.2346 33.1134 88.9587C32.7363 88.689 32.1245 88.3824 31.2777 88.0452L30.2517 87.6037C29.3184 87.1623 28.5829 86.6166 28.0514 85.9605C27.5198 85.3045 27.2479 84.3725 27.2479 83.1708C27.2479 82.1714 27.4951 81.3376 27.9957 80.6631C28.4902 79.9948 29.1392 79.4982 29.9427 79.1855C30.7462 78.8728 31.6053 78.7134 32.5262 78.7134C33.2803 78.7134 33.9663 78.7931 34.5844 78.9464C35.2025 79.0996 35.6845 79.302 36.043 79.5534C36.3706 79.7863 36.5313 80.0255 36.5313 80.2585C36.5313 80.4669 36.4633 80.7244 36.3335 81.031C36.1975 81.3376 36.0368 81.6073 35.8452 81.8342C35.6536 82.0611 35.4744 82.1775 35.3137 82.1775C35.2395 82.1775 35.1159 82.1408 34.949 82.0672C34.776 81.9936 34.6338 81.9323 34.5164 81.8894C33.9849 81.7116 33.4286 81.6257 32.8476 81.6257C32.075 81.6257 31.5373 81.7484 31.2344 81.9997C30.9316 82.2511 30.7771 82.5393 30.7771 82.8581C30.7771 83.2383 30.8821 83.5571 31.0861 83.8085C31.2962 84.0598 31.5435 84.2622 31.8401 84.4155C32.1368 84.5687 32.5757 84.7711 33.1505 85.0225C33.9972 85.3781 34.6833 85.7092 35.221 86.028C35.7525 86.3468 36.2161 86.8005 36.6117 87.3953C37.0072 87.99 37.1988 88.7503 37.1988 89.6822C37.1988 90.8165 36.9578 91.7423 36.4757 92.4658C35.9936 93.1893 35.3755 93.7105 34.6153 94.0354C33.8612 94.3604 33.0454 94.5198 32.1677 94.5198C31.117 94.5198 30.1961 94.4156 29.4111 94.2132H29.4049Z" fill="black"/>
<path d="M39.1025 93.6798V79.5534C39.1025 79.069 39.5475 78.8237 40.4375 78.8237H41.2163C42.1063 78.8237 42.5513 79.069 42.5513 79.5534V93.6798C42.5513 94.1642 42.1063 94.4094 41.2163 94.4094H40.4375C39.5475 94.4094 39.1025 94.1642 39.1025 93.6798Z" fill="black"/>
<path d="M57.385 85.9667C57.5272 86.1077 57.5952 86.3284 57.5952 86.6411V92.7785C57.5952 93.4407 57.0389 93.8944 55.9264 94.1458C54.8138 94.3972 53.6395 94.5198 52.4095 94.5198C49.9187 94.5198 48.0769 93.876 46.8778 92.5884C45.6788 91.3009 45.0854 89.296 45.0854 86.5737C45.0854 81.3376 47.5639 78.7134 52.5146 78.7134C53.1945 78.7134 53.9115 78.7808 54.6531 78.9096C55.3948 79.0383 56.0191 79.2284 56.5197 79.4614C57.0265 79.6944 57.2738 79.9642 57.2738 80.2585C57.2738 80.4669 57.1934 80.7306 57.0265 81.0617C56.8658 81.3927 56.6681 81.687 56.4394 81.9446C56.2107 82.2021 56.0067 82.3308 55.8275 82.3308C55.7842 82.3308 55.5988 82.2634 55.2712 82.1346C54.9436 81.9997 54.5481 81.8832 54.0783 81.779C53.6086 81.6748 53.0647 81.6257 52.4404 81.6257C51.1363 81.6257 50.1659 82.0365 49.5355 82.8642C48.9051 83.6858 48.5899 84.9305 48.5899 86.5921C48.5899 89.9459 49.8569 91.6258 52.3972 91.6258C52.9905 91.6258 53.5715 91.5768 54.134 91.4726V88.6706H52.1747C51.9398 88.6706 51.7667 88.5847 51.6617 88.4069C51.5566 88.2291 51.5072 87.9532 51.5072 87.5669V86.8618C51.5072 86.4817 51.5566 86.1997 51.6617 86.0219C51.7667 85.8441 51.9336 85.7582 52.1747 85.7582H56.6928C57.0018 85.7582 57.2305 85.8257 57.3726 85.9667H57.385Z" fill="black"/>
<path d="M60.6855 93.68V79.5535C60.6855 79.0814 61.1305 78.8484 62.0206 78.8484H62.9786C63.337 78.8484 63.6337 78.8913 63.8686 78.971C64.1035 79.0508 64.3012 79.2102 64.4496 79.4432L69.4559 87.1011C69.7526 87.5303 70.0184 87.9595 70.2594 88.4009L70.346 88.3764C70.3151 88.0392 70.3027 87.5364 70.3027 86.8743V79.5474C70.3027 79.0753 70.7477 78.8423 71.6377 78.8423H72.2805C73.1706 78.8423 73.6156 79.0753 73.6156 79.5474V93.6738C73.6156 94.1459 73.1706 94.3789 72.2805 94.3789H71.4338C71.0753 94.3789 70.7786 94.336 70.5438 94.2563C70.3089 94.1766 70.1111 94.0172 69.9628 93.7842L64.8451 86.0159C64.5485 85.5867 64.2827 85.1575 64.0416 84.716L63.9551 84.7406C63.986 85.0778 63.9984 85.5806 63.9984 86.2427V93.68C63.9984 94.1521 63.5534 94.3851 62.6633 94.3851H62.0206C61.1305 94.3851 60.6855 94.1521 60.6855 93.68Z" fill="black"/>
<path d="M78.1089 92.4781C76.879 91.1169 76.2609 89.1611 76.2609 86.6166C76.2609 84.0721 76.879 82.1162 78.1089 80.7551C79.3389 79.394 81.1066 78.7134 83.4058 78.7134C85.705 78.7134 87.4665 79.394 88.6903 80.7551C89.9141 82.1162 90.526 84.0721 90.526 86.6166C90.526 89.1611 89.9141 91.1169 88.6903 92.4781C87.4665 93.8392 85.705 94.5198 83.4058 94.5198C81.1066 94.5198 79.3389 93.8392 78.1089 92.4781ZM86.0944 90.3505C86.7001 89.4983 87.0091 88.2536 87.0091 86.6227C87.0091 84.9918 86.7063 83.7472 86.0944 82.901C85.4887 82.0549 84.5863 81.6319 83.3996 81.6319C82.2129 81.6319 81.3105 82.0549 80.6986 82.901C80.0806 83.7472 79.7777 84.9857 79.7777 86.6227C79.7777 88.2598 80.0868 89.4983 80.6986 90.3505C81.3167 91.2028 82.2129 91.632 83.3996 91.632C84.5863 91.632 85.4825 91.2028 86.0944 90.3505Z" fill="black"/>
<path d="M94.4322 92.5884C93.2393 91.3009 92.6398 89.296 92.6398 86.5737C92.6398 81.3376 95.1182 78.7134 100.069 78.7134C100.811 78.7134 101.565 78.7931 102.337 78.9464C103.11 79.0996 103.709 79.302 104.142 79.5534C104.525 79.7741 104.723 80.0071 104.723 80.2585C104.723 80.4669 104.643 80.7306 104.476 81.0617C104.315 81.3927 104.117 81.687 103.889 81.9446C103.66 82.2021 103.456 82.3308 103.277 82.3308C103.234 82.3308 103.054 82.2634 102.745 82.1346C102.436 81.9997 102.053 81.8832 101.608 81.779C101.163 81.6748 100.631 81.6257 100.007 81.6257C98.7031 81.6257 97.7327 82.0365 97.1022 82.8642C96.4718 83.6858 96.1566 84.9305 96.1566 86.5921C96.1566 89.9459 97.4236 91.6258 99.9639 91.6258C100.631 91.6258 101.212 91.5584 101.701 91.4296C102.189 91.3009 102.665 91.1292 103.122 90.9207C103.357 90.8042 103.524 90.7429 103.611 90.7429C103.833 90.7429 104.043 90.8656 104.247 91.1169C104.445 91.3683 104.612 91.6504 104.735 91.9692C104.859 92.288 104.927 92.5149 104.927 92.662C104.927 93.0422 104.667 93.3855 104.148 93.6798C103.66 93.9619 103.011 94.1703 102.214 94.3113C101.41 94.4524 100.662 94.5198 99.9639 94.5198C97.4731 94.5198 95.6312 93.876 94.4322 92.5884Z" fill="black"/>
<path d="M107.059 93.6797V79.774C107.059 79.4675 107.127 79.2406 107.27 79.0996C107.412 78.9586 107.634 78.8911 107.949 78.8911H112.288C115.984 78.8911 117.826 80.2768 117.826 83.042C117.826 83.8636 117.591 84.5809 117.128 85.1941C116.658 85.8072 116.028 86.2548 115.224 86.5491V86.6349C115.508 86.7391 115.793 86.9844 116.089 87.3768C116.386 87.7692 116.633 88.1984 116.825 88.6705L118.784 93.5265C118.858 93.7165 118.895 93.8576 118.895 93.9434C118.895 94.0783 118.784 94.1825 118.562 94.2622C118.339 94.3419 118.005 94.3848 117.56 94.3848H116.646C115.916 94.3848 115.49 94.2316 115.354 93.9189L113.599 89.6147C113.345 89.1303 113.073 88.787 112.789 88.5908C112.498 88.3946 112.022 88.2904 111.355 88.2904H110.49V93.6736C110.49 94.1457 110.045 94.3787 109.155 94.3787H108.401C107.511 94.3787 107.066 94.1457 107.066 93.6736L107.059 93.6797ZM112.597 85.3596C113.055 85.3596 113.456 85.1757 113.796 84.8078C114.136 84.4399 114.309 83.9923 114.309 83.4589C114.309 82.9255 114.142 82.5331 113.809 82.2327C113.475 81.9322 113.018 81.7789 112.443 81.7789H110.483V85.3535H112.597V85.3596Z" fill="black"/>
<path d="M120.539 93.9007C120.539 93.8394 120.57 93.7106 120.626 93.5022L125.521 79.3083C125.639 79.0017 126.065 78.8423 126.788 78.8423H127.944C128.686 78.8423 129.106 78.9956 129.211 79.3083L134.106 93.5022C134.149 93.6493 134.174 93.7842 134.174 93.9007C134.174 94.2257 133.803 94.3851 133.062 94.3851H132.085C131.356 94.3851 130.942 94.2318 130.837 93.9191L129.947 91.2275H124.693L123.803 93.9191C123.698 94.2257 123.358 94.3851 122.777 94.3851H121.887C120.985 94.3851 120.527 94.2257 120.527 93.9007H120.539ZM128.995 88.3151L127.728 84.385C127.623 84.0907 127.511 83.6186 127.394 82.9748H127.307C127.295 83.0606 127.258 83.2568 127.208 83.5572C127.159 83.8577 127.079 84.1336 126.974 84.385L125.663 88.3151H129.001H128.995Z" fill="black"/>
<path d="M136.64 92.5884C135.447 91.3009 134.848 89.296 134.848 86.5737C134.848 81.3376 137.326 78.7134 142.277 78.7134C143.019 78.7134 143.773 78.7931 144.545 78.9464C145.318 79.0996 145.917 79.302 146.35 79.5534C146.733 79.7741 146.931 80.0071 146.931 80.2585C146.931 80.4669 146.851 80.7306 146.684 81.0617C146.523 81.3927 146.325 81.687 146.097 81.9446C145.868 82.2021 145.664 82.3308 145.485 82.3308C145.442 82.3308 145.262 82.2634 144.953 82.1346C144.644 81.9997 144.261 81.8832 143.816 81.779C143.371 81.6748 142.84 81.6257 142.215 81.6257C140.911 81.6257 139.941 82.0365 139.31 82.8642C138.68 83.6858 138.365 84.9305 138.365 86.5921C138.365 89.9459 139.632 91.6258 142.172 91.6258C142.839 91.6258 143.42 91.5584 143.909 91.4296C144.397 91.3009 144.873 91.1292 145.33 90.9207C145.565 90.8042 145.732 90.7429 145.819 90.7429C146.041 90.7429 146.251 90.8656 146.455 91.1169C146.653 91.3683 146.82 91.6504 146.943 91.9692C147.067 92.288 147.135 92.5149 147.135 92.662C147.135 93.0422 146.876 93.3855 146.356 93.6798C145.868 93.9619 145.219 94.1703 144.422 94.3113C143.618 94.4524 142.87 94.5198 142.172 94.5198C139.681 94.5198 137.839 93.876 136.64 92.5884Z" fill="black"/>
<path d="M152.247 93.68V86.9233L147.821 79.8356C147.673 79.5842 147.599 79.4002 147.599 79.2837C147.599 78.9894 148.075 78.8423 149.02 78.8423H149.978C150.708 78.8423 151.153 78.9833 151.313 79.2592L154.027 83.9803L156.765 79.2592C156.925 78.9772 157.37 78.8423 158.1 78.8423H158.903C159.836 78.8423 160.306 78.9894 160.306 79.2837C160.306 79.4309 160.238 79.6148 160.108 79.8356L155.683 86.9846V93.6738C155.683 94.1459 155.238 94.3789 154.348 94.3789H153.594C152.704 94.3789 152.259 94.1459 152.259 93.6738L152.247 93.68Z" fill="black"/>
<path d="M16.3575 109.063C15.9063 108.591 15.6776 107.837 15.6776 106.788C15.6776 105.74 15.931 104.986 16.4316 104.538C16.9385 104.091 17.5627 103.864 18.3106 103.864C18.7432 103.864 19.1264 103.913 19.4664 104.017C19.8063 104.121 19.9794 104.238 19.9794 104.373C19.9794 104.471 19.9361 104.593 19.8496 104.741C19.763 104.894 19.6889 104.967 19.6209 104.967C19.6085 104.967 19.59 104.967 19.5714 104.949C19.5529 104.937 19.5282 104.931 19.4973 104.924C19.0955 104.747 18.6938 104.661 18.2859 104.661C17.2104 104.661 16.6727 105.366 16.6727 106.77C16.6727 107.549 16.8025 108.113 17.0683 108.456C17.334 108.799 17.7729 108.977 18.3971 108.977C18.8483 108.977 19.2686 108.879 19.6518 108.689L19.7754 108.646C19.8496 108.646 19.9299 108.72 20.0226 108.861C20.1092 109.002 20.1586 109.118 20.1586 109.21C20.1586 109.302 20.0783 109.388 19.9176 109.468C19.7569 109.554 19.5467 109.627 19.2748 109.682C19.009 109.744 18.7185 109.768 18.4095 109.768C17.4885 109.768 16.8025 109.535 16.3513 109.063H16.3575Z" fill="black"/>
<path d="M22.0561 109.48V105.605C22.0561 105.121 22.0314 104.771 21.9881 104.563C21.9448 104.354 21.9201 104.238 21.9201 104.213C21.9201 104.127 21.9881 104.06 22.1303 104.017C22.2724 103.974 22.4022 103.956 22.5196 103.956C22.6247 103.956 22.6989 104.011 22.7483 104.115C22.7978 104.219 22.8349 104.336 22.8596 104.452C22.8843 104.569 22.9029 104.649 22.909 104.685C23.3046 104.134 23.7311 103.858 24.2008 103.858C24.4109 103.858 24.5655 103.901 24.6767 103.98C24.788 104.06 24.8436 104.164 24.8436 104.287C24.8436 104.409 24.8189 104.544 24.7756 104.679C24.7323 104.814 24.6767 104.882 24.6211 104.882C24.584 104.882 24.5098 104.863 24.4048 104.82C24.2997 104.777 24.1637 104.759 24.0092 104.759C23.8361 104.759 23.6754 104.808 23.5271 104.906C23.3726 105.004 23.249 105.115 23.1439 105.231C23.0388 105.348 22.9894 105.415 22.9894 105.427V109.468C22.9894 109.627 22.841 109.713 22.5444 109.713H22.5011C22.2044 109.713 22.0561 109.633 22.0561 109.468V109.48Z" fill="black"/>
<path d="M26.9574 109.051C26.5124 108.573 26.2899 107.843 26.2899 106.856C26.2899 105.869 26.5062 105.133 26.945 104.624C27.3839 104.115 28.0267 103.864 28.8796 103.864C29.6336 103.864 30.2084 104.109 30.5916 104.6C30.9749 105.09 31.1726 105.807 31.1726 106.745C31.1726 106.813 31.1294 106.905 31.0367 107.021C30.9501 107.138 30.8698 107.199 30.8018 107.199H27.285C27.3282 107.812 27.4889 108.26 27.7609 108.548C28.0328 108.836 28.4469 108.977 28.997 108.977C29.3061 108.977 29.578 108.94 29.8005 108.861C30.0292 108.781 30.2146 108.707 30.363 108.628C30.5113 108.548 30.5978 108.511 30.6164 108.511C30.6905 108.511 30.7709 108.585 30.8698 108.732C30.9625 108.879 31.0058 108.99 31.0058 109.063C31.0058 109.149 30.913 109.253 30.7276 109.37C30.5422 109.486 30.295 109.578 29.9859 109.658C29.6769 109.738 29.3493 109.774 29.0032 109.774C28.0761 109.774 27.39 109.535 26.945 109.057L26.9574 109.051ZM30.1837 106.402C30.1837 105.237 29.7387 104.661 28.8487 104.661C27.8907 104.661 27.3715 105.243 27.2911 106.402H30.1837Z" fill="black"/>
<path d="M33.2988 109.351C32.9527 109.069 32.7734 108.658 32.7734 108.113C32.7734 107.53 32.9527 107.095 33.305 106.807C33.6573 106.519 34.0899 106.329 34.6029 106.243C35.1159 106.157 35.7402 106.114 36.4695 106.102V105.581C36.4695 105.311 36.3706 105.084 36.179 104.912C35.9874 104.741 35.6722 104.655 35.2457 104.655C34.9181 104.655 34.6338 104.691 34.3866 104.771C34.1394 104.851 33.9354 104.924 33.7747 105.004C33.614 105.084 33.5213 105.121 33.5089 105.121C33.4348 105.121 33.3482 105.047 33.2555 104.9C33.1628 104.753 33.1196 104.642 33.1196 104.569C33.1196 104.471 33.2184 104.373 33.4162 104.262C33.614 104.152 33.8736 104.06 34.2012 103.98C34.5288 103.901 34.8625 103.864 35.2148 103.864C35.9071 103.864 36.4448 104.017 36.828 104.324C37.2112 104.63 37.409 105.053 37.409 105.599V108.07C37.409 108.554 37.4337 108.904 37.477 109.112C37.5202 109.321 37.5449 109.437 37.5449 109.462C37.5449 109.547 37.477 109.615 37.3348 109.652C37.1926 109.695 37.0629 109.713 36.9454 109.713C36.8403 109.713 36.7662 109.658 36.7167 109.541C36.6673 109.425 36.6302 109.308 36.6055 109.186C36.5808 109.063 36.5622 108.977 36.556 108.94C36.0492 109.492 35.4311 109.768 34.6895 109.768C34.1208 109.768 33.6573 109.627 33.3112 109.351H33.2988ZM35.666 108.769C35.9318 108.634 36.1976 108.45 36.4757 108.205V106.905C35.9194 106.911 35.462 106.936 35.1097 106.972C34.7574 107.009 34.4484 107.113 34.1826 107.279C33.9169 107.451 33.7809 107.708 33.7809 108.064C33.7809 108.358 33.8612 108.585 34.0219 108.738C34.1826 108.891 34.4175 108.971 34.7265 108.971C35.0912 108.971 35.4002 108.904 35.666 108.775V108.769Z" fill="black"/>
<path d="M40.4808 109.431C40.1903 109.204 40.042 108.812 40.042 108.241V104.722H39.4857C39.4115 104.722 39.3559 104.698 39.3188 104.642C39.2817 104.593 39.2632 104.508 39.2632 104.391V104.256C39.2632 104.14 39.2817 104.054 39.3188 104.005C39.3559 103.956 39.4115 103.925 39.4857 103.925H40.042L40.1779 102.766C40.2026 102.607 40.3201 102.521 40.5364 102.521H40.6477C40.8702 102.521 40.9814 102.601 40.9814 102.766V103.925H41.9147C41.9951 103.925 42.0507 103.95 42.0878 104.005C42.1187 104.054 42.1372 104.14 42.1372 104.256V104.391C42.1372 104.508 42.1187 104.593 42.0878 104.642C42.0569 104.691 41.9951 104.722 41.9147 104.722H40.9814V108.156C40.9814 108.462 41.037 108.677 41.1421 108.793C41.2472 108.91 41.3955 108.971 41.581 108.971C41.7231 108.971 41.8282 108.959 41.8962 108.947C41.9642 108.934 42.0198 108.922 42.0569 108.922C42.1249 108.922 42.1805 108.989 42.2237 109.124C42.267 109.259 42.2917 109.364 42.2917 109.437C42.2917 109.658 42.0198 109.768 41.4821 109.768C41.1112 109.768 40.7775 109.658 40.487 109.431H40.4808Z" fill="black"/>
<path d="M44.183 102.638V102.018C44.183 101.84 44.3623 101.755 44.7146 101.755C45.0421 101.755 45.2028 101.84 45.2028 102.018V102.638C45.2028 102.815 45.0236 102.901 44.6713 102.901C44.3437 102.901 44.183 102.815 44.183 102.638ZM44.2263 109.48V104.152C44.2263 103.993 44.3746 103.907 44.6713 103.907H44.7146C45.0112 103.907 45.1596 103.986 45.1596 104.152V109.48C45.1596 109.639 45.0112 109.725 44.7146 109.725H44.6713C44.3746 109.725 44.2263 109.646 44.2263 109.48Z" fill="black"/>
<path d="M48.7753 109.548L46.9829 104.238C46.9582 104.17 46.952 104.121 46.952 104.097C46.952 103.974 47.1127 103.907 47.4279 103.907H47.4835C47.7431 103.907 47.8915 103.968 47.9285 104.085L49.0658 107.604C49.14 107.837 49.2698 108.297 49.4552 108.983H49.4984L49.5788 108.652C49.6591 108.235 49.7457 107.892 49.8322 107.628L50.9756 104.085C51.0127 103.968 51.1672 103.907 51.433 103.907H51.4639C51.7359 103.907 51.878 103.968 51.878 104.097C51.878 104.134 51.8657 104.183 51.8471 104.25L50.0547 109.548C50.0176 109.664 49.8693 109.725 49.6097 109.725H49.2203C48.9607 109.725 48.8124 109.664 48.7753 109.548Z" fill="black"/>
<path d="M53.9486 109.051C53.5035 108.573 53.281 107.843 53.281 106.856C53.281 105.869 53.4974 105.133 53.9362 104.624C54.375 104.115 55.0178 103.864 55.8708 103.864C56.6248 103.864 57.1996 104.109 57.5828 104.6C57.966 105.09 58.1638 105.807 58.1638 106.745C58.1638 106.813 58.1205 106.905 58.0278 107.021C57.9413 107.138 57.8609 107.199 57.7929 107.199H54.2761C54.3194 107.812 54.4801 108.26 54.752 108.548C55.024 108.836 55.4381 108.977 55.9882 108.977C56.2972 108.977 56.5692 108.94 56.7917 108.861C57.0204 108.781 57.2058 108.707 57.3541 108.628C57.5025 108.548 57.589 108.511 57.6075 108.511C57.6817 108.511 57.762 108.585 57.8609 108.732C57.9536 108.879 57.9969 108.99 57.9969 109.063C57.9969 109.149 57.9042 109.253 57.7188 109.37C57.5334 109.486 57.2861 109.578 56.9771 109.658C56.6681 109.738 56.3405 109.774 55.9944 109.774C55.0673 109.774 54.3812 109.535 53.9362 109.057L53.9486 109.051ZM57.1749 106.402C57.1749 105.237 56.7299 104.661 55.8398 104.661C54.8818 104.661 54.3627 105.243 54.2823 106.402H57.1749Z" fill="black"/>
<path d="M63.5163 109.351C63.1702 109.069 62.9909 108.658 62.9909 108.113C62.9909 107.53 63.1702 107.095 63.5225 106.807C63.8748 106.519 64.3074 106.329 64.8204 106.243C65.3334 106.157 65.9577 106.114 66.687 106.102V105.581C66.687 105.311 66.5881 105.084 66.3965 104.912C66.2049 104.741 65.8897 104.655 65.4632 104.655C65.1356 104.655 64.8513 104.691 64.6041 104.771C64.3569 104.851 64.1529 104.924 63.9922 105.004C63.8315 105.084 63.7388 105.121 63.7264 105.121C63.6523 105.121 63.5657 105.047 63.473 104.9C63.3803 104.753 63.337 104.642 63.337 104.569C63.337 104.471 63.4359 104.373 63.6337 104.262C63.8315 104.152 64.0911 104.06 64.4187 103.98C64.7462 103.901 65.08 103.864 65.4323 103.864C66.1245 103.864 66.6623 104.017 67.0455 104.324C67.4287 104.63 67.6265 105.053 67.6265 105.599V108.07C67.6265 108.554 67.6512 108.904 67.6944 109.112C67.7377 109.321 67.7624 109.437 67.7624 109.462C67.7624 109.547 67.6944 109.615 67.5523 109.652C67.4101 109.695 67.2803 109.713 67.1629 109.713C67.0578 109.713 66.9837 109.658 66.9342 109.541C66.8848 109.425 66.8477 109.308 66.823 109.186C66.7982 109.063 66.7797 108.977 66.7735 108.94C66.2667 109.492 65.6486 109.768 64.9069 109.768C64.3383 109.768 63.8748 109.627 63.5286 109.351H63.5163ZM65.8835 108.769C66.1493 108.634 66.415 108.45 66.6932 108.205V106.905C66.1369 106.911 65.6795 106.936 65.3272 106.972C64.9749 107.009 64.6659 107.113 64.4001 107.279C64.1344 107.451 63.9984 107.708 63.9984 108.064C63.9984 108.358 64.0787 108.585 64.2394 108.738C64.4001 108.891 64.635 108.971 64.944 108.971C65.3087 108.971 65.6177 108.904 65.8835 108.775V108.769Z" fill="black"/>
<path d="M70.0246 109.48V105.605C70.0246 105.121 69.9998 104.771 69.9566 104.563C69.9133 104.354 69.8886 104.238 69.8886 104.213C69.8886 104.127 69.9566 104.06 70.0987 104.017C70.2409 103.974 70.3707 103.956 70.4881 103.956C70.5932 103.956 70.6674 104.011 70.7168 104.115C70.7662 104.219 70.8033 104.336 70.8281 104.452C70.8528 104.569 70.8713 104.649 70.8775 104.685C71.1124 104.428 71.3843 104.226 71.6872 104.078C71.99 103.931 72.2991 103.858 72.6081 103.858C73.1705 103.858 73.6156 104.017 73.9369 104.33C74.2583 104.649 74.419 105.084 74.419 105.642V109.474C74.419 109.633 74.2707 109.719 73.974 109.719H73.9308C73.6341 109.719 73.4858 109.639 73.4858 109.474V105.734C73.4858 105.397 73.3869 105.133 73.1891 104.943C72.9913 104.753 72.7132 104.661 72.3485 104.661C72.0951 104.661 71.8479 104.728 71.6006 104.869C71.3534 105.01 71.1371 105.194 70.9517 105.433V109.474C70.9517 109.633 70.8033 109.719 70.5067 109.719H70.4634C70.1667 109.719 70.0184 109.639 70.0184 109.474L70.0246 109.48Z" fill="black"/>
<path d="M77.4105 109.394C77.0829 109.143 76.8357 108.793 76.6626 108.346C76.4896 107.898 76.403 107.389 76.403 106.825C76.403 106.2 76.4958 105.666 76.6874 105.219C76.879 104.771 77.1447 104.44 77.4847 104.207C77.8246 103.974 78.2202 103.864 78.6652 103.864C78.9928 103.864 79.2771 103.913 79.5305 104.005C79.7777 104.103 80.0188 104.238 80.2598 104.422V101.638C80.2598 101.479 80.4081 101.393 80.7048 101.393H80.7481C81.0448 101.393 81.1931 101.473 81.1931 101.638V108.064C81.1931 108.548 81.2178 108.898 81.2611 109.106C81.3044 109.314 81.3291 109.431 81.3291 109.455C81.3291 109.541 81.2611 109.609 81.1189 109.646C80.9768 109.682 80.847 109.707 80.7295 109.707C80.6245 109.707 80.5503 109.652 80.5009 109.535C80.4514 109.419 80.4143 109.302 80.3896 109.18C80.3649 109.057 80.3463 108.971 80.3402 108.934C79.8086 109.486 79.2153 109.762 78.5725 109.762C78.1336 109.762 77.7504 109.639 77.429 109.388L77.4105 109.394ZM79.5181 108.763C79.7839 108.628 80.0249 108.444 80.2475 108.199V105.176C79.8457 104.845 79.3883 104.679 78.8815 104.679C78.3747 104.679 78.01 104.857 77.7566 105.206C77.5032 105.562 77.3796 106.065 77.3796 106.727C77.3796 107.438 77.497 107.99 77.7381 108.376C77.9791 108.763 78.3129 108.953 78.7517 108.953C79.0051 108.953 79.2585 108.885 79.5243 108.756L79.5181 108.763Z" fill="black"/>
<path d="M86.8485 111.755V105.605C86.8485 105.121 86.8237 104.771 86.7805 104.563C86.7372 104.354 86.7125 104.238 86.7125 104.213C86.7125 104.127 86.7805 104.06 86.9226 104.017C87.0648 103.974 87.1946 103.956 87.312 103.956C87.4171 103.956 87.4913 104.011 87.5407 104.115C87.5902 104.219 87.6272 104.336 87.652 104.452C87.6767 104.569 87.6952 104.649 87.7014 104.685C88.233 104.134 88.8263 103.858 89.4691 103.858C89.9203 103.858 90.3097 103.986 90.6311 104.238C90.9525 104.489 91.1997 104.839 91.3728 105.286C91.5458 105.734 91.6262 106.243 91.6262 106.813C91.6262 107.438 91.5334 107.972 91.3418 108.413C91.1502 108.855 90.8845 109.192 90.5445 109.419C90.2046 109.646 89.809 109.762 89.364 109.762C89.0364 109.762 88.7521 109.713 88.5049 109.621C88.2577 109.523 88.0166 109.388 87.7756 109.204V111.755C87.7756 111.914 87.6272 112 87.3306 112H87.2873C86.9906 112 86.8423 111.92 86.8423 111.755H86.8485ZM90.2726 108.419C90.526 108.064 90.6496 107.561 90.6496 106.899C90.6496 106.188 90.5322 105.636 90.2911 105.249C90.0563 104.863 89.7163 104.673 89.2775 104.673C89.0241 104.673 88.7645 104.741 88.5049 104.869C88.2391 105.004 87.9981 105.188 87.7756 105.433V108.456C88.1773 108.787 88.6347 108.953 89.1539 108.953C89.6421 108.953 90.013 108.775 90.2664 108.425L90.2726 108.419Z" fill="black"/>
<path d="M93.8883 109.351C93.5422 109.069 93.3629 108.658 93.3629 108.113C93.3629 107.53 93.5422 107.095 93.8945 106.807C94.2468 106.519 94.6794 106.329 95.1924 106.243C95.7054 106.157 96.3297 106.114 97.059 106.102V105.581C97.059 105.311 96.9601 105.084 96.7685 104.912C96.5769 104.741 96.2617 104.655 95.8352 104.655C95.5076 104.655 95.2233 104.691 94.9761 104.771C94.7289 104.851 94.5249 104.924 94.3642 105.004C94.2035 105.084 94.1108 105.121 94.0984 105.121C94.0243 105.121 93.9377 105.047 93.845 104.9C93.7523 104.753 93.709 104.642 93.709 104.569C93.709 104.471 93.8079 104.373 94.0057 104.262C94.2035 104.152 94.4631 104.06 94.7907 103.98C95.1183 103.901 95.452 103.864 95.8043 103.864C96.4965 103.864 97.0343 104.017 97.4175 104.324C97.8007 104.63 97.9985 105.053 97.9985 105.599V108.07C97.9985 108.554 98.0232 108.904 98.0664 109.112C98.1097 109.321 98.1344 109.437 98.1344 109.462C98.1344 109.547 98.0664 109.615 97.9243 109.652C97.7821 109.695 97.6523 109.713 97.5349 109.713C97.4298 109.713 97.3557 109.658 97.3062 109.541C97.2568 109.425 97.2197 109.308 97.195 109.186C97.1702 109.063 97.1517 108.977 97.1455 108.94C96.6387 109.492 96.0206 109.768 95.2789 109.768C94.7103 109.768 94.2468 109.627 93.9006 109.351H93.8883ZM96.2555 108.769C96.5213 108.634 96.787 108.45 97.0652 108.205V106.905C96.5089 106.911 96.0515 106.936 95.6992 106.972C95.3469 107.009 95.0379 107.113 94.7721 107.279C94.5064 107.451 94.3704 107.708 94.3704 108.064C94.3704 108.358 94.4507 108.585 94.6114 108.738C94.7721 108.891 95.007 108.971 95.316 108.971C95.6807 108.971 95.9897 108.904 96.2555 108.775V108.769Z" fill="black"/>
<path d="M100.712 109.688C100.44 109.609 100.224 109.517 100.069 109.406C99.9083 109.296 99.8279 109.198 99.8279 109.106C99.8279 109.032 99.8774 108.922 99.9701 108.775C100.063 108.628 100.143 108.554 100.217 108.554C100.23 108.554 100.304 108.597 100.427 108.677C100.551 108.756 100.712 108.83 100.903 108.897C101.095 108.965 101.299 108.995 101.534 108.995C102.263 108.995 102.622 108.695 102.622 108.1C102.622 107.849 102.541 107.653 102.374 107.506C102.214 107.358 101.923 107.224 101.509 107.107C100.922 106.935 100.52 106.727 100.298 106.469C100.075 106.218 99.9639 105.875 99.9639 105.445C99.9639 105.139 100.044 104.863 100.205 104.618C100.366 104.373 100.582 104.182 100.86 104.048C101.138 103.913 101.453 103.845 101.812 103.845C102.189 103.845 102.529 103.894 102.832 103.986C103.135 104.084 103.283 104.195 103.283 104.317C103.283 104.415 103.24 104.538 103.153 104.685C103.067 104.838 102.992 104.912 102.924 104.912C102.9 104.906 102.801 104.857 102.628 104.765C102.455 104.673 102.214 104.624 101.911 104.624C101.627 104.624 101.392 104.685 101.206 104.814C101.015 104.937 100.922 105.108 100.922 105.323C100.922 105.574 100.99 105.77 101.12 105.918C101.256 106.065 101.478 106.187 101.787 106.279C102.263 106.426 102.622 106.574 102.869 106.715C103.116 106.856 103.295 107.033 103.4 107.242C103.505 107.45 103.561 107.726 103.561 108.064C103.561 108.401 103.475 108.683 103.301 108.94C103.128 109.198 102.887 109.406 102.591 109.56C102.288 109.713 101.96 109.786 101.596 109.786C101.274 109.786 100.984 109.75 100.712 109.67V109.688Z" fill="black"/>
<path d="M105.867 109.688C105.595 109.609 105.378 109.517 105.224 109.406C105.063 109.296 104.983 109.198 104.983 109.106C104.983 109.032 105.032 108.922 105.125 108.775C105.218 108.628 105.298 108.554 105.372 108.554C105.384 108.554 105.459 108.597 105.582 108.677C105.706 108.756 105.867 108.83 106.058 108.897C106.25 108.965 106.454 108.995 106.689 108.995C107.418 108.995 107.776 108.695 107.776 108.1C107.776 107.849 107.696 107.653 107.529 107.506C107.368 107.358 107.078 107.224 106.664 107.107C106.077 106.935 105.675 106.727 105.452 106.469C105.23 106.218 105.119 105.875 105.119 105.445C105.119 105.139 105.199 104.863 105.36 104.618C105.52 104.373 105.737 104.182 106.015 104.048C106.293 103.913 106.608 103.845 106.967 103.845C107.344 103.845 107.684 103.894 107.987 103.986C108.289 104.084 108.438 104.195 108.438 104.317C108.438 104.415 108.394 104.538 108.308 104.685C108.221 104.838 108.147 104.912 108.079 104.912C108.054 104.906 107.956 104.857 107.783 104.765C107.609 104.673 107.368 104.624 107.066 104.624C106.781 104.624 106.546 104.685 106.361 104.814C106.169 104.937 106.077 105.108 106.077 105.323C106.077 105.574 106.145 105.77 106.274 105.918C106.41 106.065 106.633 106.187 106.942 106.279C107.418 106.426 107.776 106.574 108.024 106.715C108.271 106.856 108.45 107.033 108.555 107.242C108.66 107.45 108.716 107.726 108.716 108.064C108.716 108.401 108.629 108.683 108.456 108.94C108.283 109.198 108.042 109.406 107.745 109.56C107.443 109.713 107.115 109.786 106.75 109.786C106.429 109.786 106.138 109.75 105.867 109.67V109.688Z" fill="black"/>
<path d="M110.712 102.638V102.018C110.712 101.84 110.891 101.755 111.244 101.755C111.571 101.755 111.732 101.84 111.732 102.018V102.638C111.732 102.815 111.553 102.901 111.2 102.901C110.873 102.901 110.712 102.815 110.712 102.638ZM110.755 109.48V104.152C110.755 103.993 110.904 103.907 111.2 103.907H111.244C111.54 103.907 111.689 103.986 111.689 104.152V109.48C111.689 109.639 111.54 109.725 111.244 109.725H111.2C110.904 109.725 110.755 109.646 110.755 109.48Z" fill="black"/>
<path d="M114.519 109.02C114.081 108.517 113.858 107.794 113.858 106.844C113.858 105.893 114.081 105.151 114.526 104.636C114.971 104.121 115.607 103.864 116.442 103.864C117.276 103.864 117.882 104.121 118.314 104.63C118.747 105.139 118.963 105.881 118.963 106.844C118.963 107.806 118.753 108.53 118.321 109.026C117.888 109.523 117.264 109.768 116.436 109.768C115.607 109.768 114.958 109.517 114.513 109.02H114.519ZM117.61 108.45C117.869 108.1 117.999 107.555 117.999 106.819C117.999 106.083 117.869 105.538 117.61 105.188C117.35 104.833 116.949 104.661 116.411 104.661C115.873 104.661 115.471 104.839 115.218 105.182C114.964 105.531 114.841 106.077 114.841 106.819C114.841 107.561 114.964 108.1 115.218 108.45C115.471 108.799 115.867 108.971 116.411 108.971C116.955 108.971 117.35 108.793 117.61 108.45Z" fill="black"/>
<path d="M121.09 109.48V105.605C121.09 105.121 121.065 104.771 121.022 104.563C120.978 104.354 120.954 104.238 120.954 104.213C120.954 104.127 121.022 104.06 121.164 104.017C121.306 103.974 121.436 103.956 121.553 103.956C121.658 103.956 121.732 104.011 121.782 104.115C121.831 104.219 121.868 104.336 121.893 104.452C121.918 104.569 121.936 104.649 121.943 104.685C122.177 104.428 122.449 104.226 122.752 104.078C123.055 103.931 123.364 103.858 123.673 103.858C124.236 103.858 124.681 104.017 125.002 104.33C125.323 104.649 125.484 105.084 125.484 105.642V109.474C125.484 109.633 125.336 109.719 125.039 109.719H124.996C124.699 109.719 124.551 109.639 124.551 109.474V105.734C124.551 105.397 124.452 105.133 124.254 104.943C124.056 104.753 123.778 104.661 123.414 104.661C123.16 104.661 122.913 104.728 122.666 104.869C122.418 105.01 122.202 105.194 122.017 105.433V109.474C122.017 109.633 121.868 109.719 121.572 109.719H121.528C121.232 109.719 121.083 109.639 121.083 109.474L121.09 109.48Z" fill="black"/>
<path d="M127.956 109.351C127.61 109.069 127.431 108.658 127.431 108.113C127.431 107.53 127.61 107.095 127.963 106.807C128.315 106.519 128.747 106.329 129.26 106.243C129.773 106.157 130.398 106.114 131.127 106.102V105.581C131.127 105.311 131.028 105.084 130.837 104.912C130.645 104.741 130.33 104.655 129.903 104.655C129.576 104.655 129.291 104.691 129.044 104.771C128.797 104.851 128.593 104.924 128.432 105.004C128.272 105.084 128.179 105.121 128.166 105.121C128.092 105.121 128.006 105.047 127.913 104.9C127.82 104.753 127.777 104.642 127.777 104.569C127.777 104.471 127.876 104.373 128.074 104.262C128.272 104.152 128.531 104.06 128.859 103.98C129.186 103.901 129.52 103.864 129.872 103.864C130.565 103.864 131.102 104.017 131.486 104.324C131.869 104.63 132.067 105.053 132.067 105.599V108.07C132.067 108.554 132.091 108.904 132.134 109.112C132.178 109.321 132.202 109.437 132.202 109.462C132.202 109.547 132.134 109.615 131.992 109.652C131.85 109.695 131.72 109.713 131.603 109.713C131.498 109.713 131.424 109.658 131.374 109.541C131.325 109.425 131.288 109.308 131.263 109.186C131.238 109.063 131.22 108.977 131.214 108.94C130.707 109.492 130.089 109.768 129.347 109.768C128.778 109.768 128.315 109.627 127.969 109.351H127.956ZM130.324 108.769C130.589 108.634 130.855 108.45 131.133 108.205V106.905C130.577 106.911 130.12 106.936 129.767 106.972C129.415 107.009 129.106 107.113 128.84 107.279C128.574 107.451 128.438 107.708 128.438 108.064C128.438 108.358 128.519 108.585 128.679 108.738C128.84 108.891 129.075 108.971 129.384 108.971C129.749 108.971 130.058 108.904 130.324 108.775V108.769Z" fill="black"/>
<path d="M135.132 109.431C134.842 109.204 134.693 108.812 134.693 108.241V104.722H134.137C134.063 104.722 134.007 104.698 133.97 104.642C133.933 104.593 133.915 104.508 133.915 104.391V104.256C133.915 104.14 133.933 104.054 133.97 104.005C134.007 103.956 134.063 103.925 134.137 103.925H134.693L134.829 102.766C134.854 102.607 134.971 102.521 135.188 102.521H135.299C135.522 102.521 135.633 102.601 135.633 102.766V103.925H136.566C136.646 103.925 136.702 103.95 136.739 104.005C136.77 104.054 136.789 104.14 136.789 104.256V104.391C136.789 104.508 136.77 104.593 136.739 104.642C136.708 104.691 136.646 104.722 136.566 104.722H135.633V108.156C135.633 108.462 135.688 108.677 135.793 108.793C135.899 108.91 136.047 108.971 136.232 108.971C136.374 108.971 136.48 108.959 136.548 108.947C136.616 108.934 136.671 108.922 136.708 108.922C136.776 108.922 136.832 108.989 136.875 109.124C136.918 109.259 136.943 109.364 136.943 109.437C136.943 109.658 136.671 109.768 136.133 109.768C135.763 109.768 135.429 109.658 135.138 109.431H135.132Z" fill="black"/>
<path d="M139.143 109.051C138.698 108.573 138.476 107.843 138.476 106.856C138.476 105.869 138.692 105.133 139.131 104.624C139.57 104.115 140.213 103.864 141.066 103.864C141.82 103.864 142.395 104.109 142.778 104.6C143.161 105.09 143.359 105.807 143.359 106.745C143.359 106.813 143.315 106.905 143.223 107.021C143.136 107.138 143.056 107.199 142.988 107.199H139.471C139.514 107.812 139.675 108.26 139.947 108.548C140.219 108.836 140.633 108.977 141.183 108.977C141.492 108.977 141.764 108.94 141.987 108.861C142.215 108.781 142.401 108.707 142.549 108.628C142.697 108.548 142.784 108.511 142.802 108.511C142.877 108.511 142.957 108.585 143.056 108.732C143.149 108.879 143.192 108.99 143.192 109.063C143.192 109.149 143.099 109.253 142.914 109.37C142.728 109.486 142.481 109.578 142.172 109.658C141.863 109.738 141.535 109.774 141.189 109.774C140.262 109.774 139.576 109.535 139.131 109.057L139.143 109.051ZM142.37 106.402C142.37 105.237 141.925 104.661 141.035 104.661C140.077 104.661 139.558 105.243 139.477 106.402H142.37Z" fill="black"/>
</g>
<defs>
<clipPath id="clip0_1517_7971">
<rect width="160" height="112" fill="white" transform="translate(0.299988)"/>
</clipPath>
</defs>
</svg>
