<svg width="159" height="106" viewBox="0 0 159 106" fill="none" xmlns="http://www.w3.org/2000/svg">
<g clip-path="url(#clip0_1517_7884)">
<path d="M62.1458 0V26.2965H94.6565V51.4993" stroke="#ED9B26" stroke-width="10" stroke-miterlimit="10"/>
<path d="M62.1458 51.4992V35.3191" stroke="#ED9B26" stroke-width="10" stroke-miterlimit="10"/>
<path d="M13.4928 100.331H14.1659V105.009H13.4928V100.331Z" fill="#3B3B3B"/>
<path d="M17.0235 100.914H15.4081V100.331H19.3059V100.914H17.6905V105.009H17.0235V100.914Z" fill="#3B3B3B"/>
<path d="M21.1049 100.143C21.1906 100.228 21.2273 100.337 21.2273 100.465C21.2273 100.532 21.2212 100.598 21.209 100.665C21.1967 100.732 21.1661 100.823 21.1233 100.945L20.799 101.88H20.3768L20.6277 100.884C20.542 100.854 20.4747 100.799 20.4196 100.726C20.3645 100.653 20.3401 100.568 20.3401 100.471C20.3401 100.337 20.3829 100.228 20.4686 100.143C20.5542 100.058 20.6583 100.015 20.7929 100.015C20.9275 100.015 21.0254 100.058 21.1049 100.143Z" fill="#3B3B3B"/>
<path d="M23.1732 104.9C22.8428 104.791 22.5857 104.651 22.3961 104.475L22.6469 103.952C22.8244 104.11 23.0569 104.244 23.3384 104.341C23.6199 104.438 23.9075 104.493 24.2012 104.493C24.5928 104.493 24.8804 104.426 25.0762 104.293C25.272 104.159 25.3638 103.989 25.3638 103.77C25.3638 103.612 25.3088 103.478 25.2047 103.381C25.1007 103.278 24.9661 103.205 24.8131 103.15C24.6601 103.096 24.4398 103.035 24.1584 102.968C23.8035 102.883 23.5159 102.798 23.3017 102.713C23.0814 102.628 22.8978 102.5 22.7448 102.324C22.5919 102.148 22.5123 101.911 22.5123 101.613C22.5123 101.364 22.5796 101.139 22.7143 100.939C22.8489 100.738 23.0447 100.58 23.3139 100.459C23.5832 100.337 23.9197 100.276 24.3175 100.276C24.5989 100.276 24.8682 100.313 25.1374 100.386C25.4067 100.459 25.6392 100.562 25.8289 100.696L25.6086 101.23C25.4128 101.103 25.1986 101.012 24.9783 100.945C24.7519 100.878 24.5316 100.848 24.3175 100.848C23.9381 100.848 23.6505 100.914 23.4608 101.054C23.2711 101.194 23.1732 101.37 23.1732 101.589C23.1732 101.747 23.2283 101.88 23.3323 101.978C23.4424 102.081 23.5709 102.154 23.73 102.209C23.8891 102.263 24.1033 102.324 24.3786 102.385C24.7336 102.47 25.015 102.555 25.2353 102.64C25.4495 102.725 25.6331 102.853 25.7922 103.029C25.9451 103.205 26.0247 103.436 26.0247 103.734C26.0247 103.977 25.9574 104.201 25.8228 104.408C25.6881 104.608 25.4862 104.773 25.2108 104.888C24.9355 105.003 24.5989 105.064 24.2012 105.064C23.8463 105.064 23.5036 105.009 23.1732 104.9Z" fill="#3B3B3B"/>
<path d="M30.7609 100.914H29.1454V100.331H33.0433V100.914H31.4279V105.009H30.7609V100.914Z" fill="#3B3B3B"/>
<path d="M38.3302 100.331V105.009H37.6571V102.925H34.9525V105.009H34.2794V100.331H34.9525V102.342H37.6571V100.331H38.3302Z" fill="#3B3B3B"/>
<path d="M43.6722 104.426V105.009H40.2516V100.331H43.5743V100.914H40.9247V102.354H43.2867V102.919H40.9247V104.432H43.6722V104.426Z" fill="#3B3B3B"/>
<path d="M50.5807 103.843H48.0779L47.5578 105.009H46.8664L49.0019 100.331H49.6689L51.8106 105.009H51.1008L50.5807 103.843ZM50.3481 103.308L49.3324 101.018L48.3166 103.308H50.3481Z" fill="#3B3B3B"/>
<path d="M56.1613 105.009L55.1455 103.569C55.017 103.576 54.9191 103.582 54.8518 103.582H53.6892V105.003H53.0161V100.325H54.8518C55.4637 100.325 55.941 100.471 56.2898 100.756C56.6386 101.048 56.816 101.443 56.816 101.953C56.816 102.312 56.7242 102.622 56.5468 102.877C56.3693 103.132 56.1123 103.314 55.7819 103.43L56.9017 104.997H56.1674L56.1613 105.009ZM55.8064 102.743C56.0328 102.561 56.1429 102.3 56.1429 101.959C56.1429 101.619 56.0328 101.358 55.8064 101.182C55.58 100.999 55.2556 100.908 54.8334 100.908H53.6892V103.01H54.8334C55.2618 103.01 55.5861 102.919 55.8064 102.737V102.743Z" fill="#3B3B3B"/>
<path d="M59.2759 100.914H57.6605V100.331H61.5583V100.914H59.9429V105.009H59.2759V100.914Z" fill="#3B3B3B"/>
<path d="M62.9657 104.268C63.0514 104.353 63.0881 104.463 63.0881 104.59C63.0881 104.657 63.082 104.724 63.0636 104.785C63.0453 104.845 63.0147 104.943 62.9718 105.07L62.6536 106H62.2314L62.4823 105.003C62.3966 104.973 62.3293 104.918 62.2742 104.845C62.2192 104.772 62.1947 104.687 62.1947 104.59C62.1947 104.457 62.2375 104.347 62.3232 104.262C62.4089 104.177 62.5129 104.135 62.6475 104.135C62.7821 104.135 62.88 104.177 62.9596 104.262L62.9657 104.268Z" fill="#3B3B3B"/>
<path d="M70.9818 100.331V105.009H70.431L67.604 101.522V105.009H66.9309V100.331H67.4816L70.3087 103.819V100.331H70.9818Z" fill="#3B3B3B"/>
<path d="M73.7415 104.754C73.3621 104.548 73.0622 104.262 72.842 103.898C72.6217 103.533 72.5176 103.126 72.5176 102.676C72.5176 102.227 72.6278 101.82 72.842 101.455C73.0622 101.091 73.356 100.805 73.7415 100.598C74.1208 100.392 74.5492 100.289 75.0265 100.289C75.5038 100.289 75.926 100.392 76.3054 100.598C76.6847 100.805 76.9846 101.091 77.1988 101.455C77.4129 101.82 77.5231 102.227 77.5231 102.682C77.5231 103.138 77.4129 103.545 77.1988 103.91C76.9846 104.274 76.6847 104.56 76.3054 104.767C75.926 104.973 75.4976 105.076 75.0265 105.076C74.5553 105.076 74.1208 104.973 73.7415 104.767V104.754ZM75.9566 104.238C76.2319 104.08 76.4522 103.867 76.6113 103.594C76.7704 103.32 76.85 103.011 76.85 102.676C76.85 102.342 76.7704 102.032 76.6113 101.759C76.4522 101.486 76.2319 101.273 75.9566 101.115C75.6812 100.957 75.3691 100.884 75.0265 100.884C74.6838 100.884 74.3656 100.963 74.0902 101.115C73.8088 101.273 73.5885 101.486 73.4294 101.759C73.2703 102.032 73.1907 102.342 73.1907 102.676C73.1907 103.011 73.2703 103.32 73.4294 103.594C73.5885 103.867 73.8088 104.086 74.0902 104.238C74.3717 104.396 74.6838 104.475 75.0265 104.475C75.3691 104.475 75.6812 104.396 75.9566 104.238Z" fill="#3B3B3B"/>
<path d="M79.9279 100.914H78.3124V100.331H82.2103V100.914H80.5948V105.009H79.9279V100.914Z" fill="#3B3B3B"/>
<path d="M85.5819 104.888C85.3371 104.773 85.1413 104.602 84.9945 104.39L85.3861 103.934C85.6431 104.305 85.9735 104.487 86.3713 104.487C86.6344 104.487 86.8363 104.408 86.9771 104.244C87.1117 104.086 87.179 103.849 87.179 103.533V100.908H85.4779V100.325H87.846V103.503C87.846 104.019 87.7236 104.408 87.4727 104.669C87.2218 104.93 86.8547 105.058 86.3713 105.058C86.0898 105.058 85.8267 104.997 85.5819 104.882V104.888Z" fill="#3B3B3B"/>
<path d="M90.208 104.529C89.8592 104.171 89.6817 103.661 89.6817 102.992V100.331H90.3548V102.962C90.3548 103.964 90.7954 104.469 91.6827 104.469C92.111 104.469 92.4415 104.347 92.674 104.098C92.9004 103.849 93.0166 103.472 93.0166 102.968V100.337H93.6714V102.998C93.6714 103.673 93.4939 104.183 93.1451 104.542C92.7964 104.9 92.3068 105.07 91.6766 105.07C91.0463 105.07 90.5568 104.894 90.208 104.536V104.529Z" fill="#3B3B3B"/>
<path d="M95.8987 104.9C95.5683 104.791 95.3113 104.651 95.1216 104.475L95.3725 103.952C95.5499 104.11 95.7825 104.244 96.0639 104.341C96.3454 104.438 96.633 104.493 96.9267 104.493C97.3184 104.493 97.606 104.426 97.8018 104.293C97.9976 104.159 98.0894 103.989 98.0894 103.77C98.0894 103.612 98.0343 103.478 97.9303 103.381C97.8262 103.278 97.6916 103.205 97.5387 103.15C97.3857 103.096 97.1654 103.035 96.8839 102.968C96.529 102.883 96.2414 102.798 96.0272 102.713C95.8069 102.628 95.6234 102.5 95.4704 102.324C95.3174 102.148 95.2379 101.911 95.2379 101.613C95.2379 101.364 95.3052 101.139 95.4398 100.939C95.5744 100.738 95.7702 100.58 96.0395 100.459C96.3087 100.337 96.6453 100.276 97.043 100.276C97.3245 100.276 97.5937 100.313 97.863 100.386C98.1322 100.459 98.3647 100.562 98.5544 100.696L98.3341 101.23C98.1383 101.103 97.9241 101.012 97.7039 100.945C97.4775 100.878 97.2572 100.848 97.043 100.848C96.6636 100.848 96.376 100.914 96.1863 101.054C95.9966 101.194 95.8987 101.37 95.8987 101.589C95.8987 101.747 95.9538 101.88 96.0578 101.978C96.168 102.081 96.2965 102.154 96.4556 102.209C96.6147 102.263 96.8288 102.324 97.1042 102.385C97.4591 102.47 97.7406 102.555 97.9609 102.64C98.175 102.725 98.3586 102.853 98.5177 103.029C98.6707 103.205 98.7502 103.436 98.7502 103.734C98.7502 103.977 98.6829 104.201 98.5483 104.408C98.4137 104.608 98.2117 104.773 97.9364 104.888C97.661 105.003 97.3245 105.064 96.9267 105.064C96.5718 105.064 96.2292 105.009 95.8987 104.9Z" fill="#3B3B3B"/>
<path d="M101.106 100.914H99.4907V100.331H103.389V100.914H101.773V105.009H101.106V100.914Z" fill="#3B3B3B"/>
<path d="M109.942 103.843H107.439L106.919 105.009H106.228L108.363 100.331H109.03L111.172 105.009H110.462L109.942 103.843ZM109.71 103.308L108.694 101.018L107.678 103.308H109.71Z" fill="#3B3B3B"/>
<path d="M114.684 100.331H116.673C117.169 100.331 117.615 100.428 118.001 100.623C118.386 100.817 118.686 101.097 118.9 101.449C119.115 101.801 119.219 102.209 119.219 102.67C119.219 103.132 119.115 103.533 118.9 103.892C118.686 104.244 118.386 104.523 118.001 104.718C117.615 104.912 117.175 105.009 116.673 105.009H114.684V100.331ZM116.63 104.426C117.01 104.426 117.346 104.353 117.634 104.207C117.921 104.062 118.148 103.855 118.301 103.588C118.46 103.32 118.533 103.017 118.533 102.67C118.533 102.324 118.454 102.014 118.301 101.753C118.148 101.492 117.921 101.279 117.634 101.133C117.346 100.987 117.01 100.914 116.63 100.914H115.357V104.432H116.63V104.426Z" fill="#3B3B3B"/>
<path d="M124.169 104.426V105.009H120.748V100.331H124.071V100.914H121.422V102.354H123.783V102.919H121.422V104.432H124.169V104.426Z" fill="#3B3B3B"/>
<path d="M126.115 104.9C125.784 104.791 125.527 104.651 125.338 104.475L125.589 103.952C125.766 104.11 125.999 104.244 126.28 104.341C126.562 104.438 126.849 104.493 127.143 104.493C127.535 104.493 127.822 104.426 128.018 104.293C128.214 104.159 128.306 103.989 128.306 103.77C128.306 103.612 128.25 103.478 128.146 103.381C128.042 103.278 127.908 103.205 127.755 103.15C127.602 103.096 127.382 103.035 127.1 102.968C126.745 102.883 126.458 102.798 126.243 102.713C126.023 102.628 125.84 102.5 125.687 102.324C125.534 102.148 125.454 101.911 125.454 101.613C125.454 101.364 125.521 101.139 125.656 100.939C125.791 100.738 125.986 100.58 126.256 100.459C126.525 100.337 126.861 100.276 127.259 100.276C127.541 100.276 127.81 100.313 128.079 100.386C128.348 100.459 128.581 100.562 128.771 100.696L128.55 101.23C128.354 101.103 128.14 101.012 127.92 100.945C127.694 100.878 127.473 100.848 127.259 100.848C126.88 100.848 126.592 100.914 126.402 101.054C126.213 101.194 126.115 101.37 126.115 101.589C126.115 101.747 126.17 101.88 126.274 101.978C126.384 102.081 126.513 102.154 126.672 102.209C126.831 102.263 127.045 102.324 127.32 102.385C127.675 102.47 127.957 102.555 128.177 102.64C128.391 102.725 128.575 102.853 128.734 103.029C128.887 103.205 128.966 103.436 128.966 103.734C128.966 103.977 128.899 104.201 128.764 104.408C128.63 104.608 128.428 104.773 128.153 104.888C127.877 105.003 127.541 105.064 127.143 105.064C126.788 105.064 126.445 105.009 126.115 104.9Z" fill="#3B3B3B"/>
<path d="M130.453 100.331H131.126V105.009H130.453V100.331Z" fill="#3B3B3B"/>
<path d="M136.309 102.646H136.958V104.469C136.725 104.663 136.45 104.809 136.144 104.912C135.838 105.016 135.514 105.064 135.177 105.064C134.7 105.064 134.272 104.961 133.892 104.754C133.513 104.548 133.213 104.262 132.993 103.898C132.772 103.533 132.668 103.126 132.668 102.67C132.668 102.215 132.779 101.807 132.993 101.443C133.207 101.078 133.513 100.793 133.892 100.586C134.278 100.38 134.706 100.276 135.189 100.276C135.569 100.276 135.905 100.337 136.218 100.459C136.523 100.58 136.787 100.762 137.001 100.999L136.585 101.413C136.205 101.054 135.752 100.872 135.22 100.872C134.859 100.872 134.541 100.951 134.253 101.103C133.966 101.255 133.745 101.473 133.586 101.747C133.427 102.02 133.342 102.33 133.342 102.67C133.342 103.011 133.421 103.314 133.586 103.588C133.745 103.861 133.972 104.08 134.253 104.232C134.541 104.39 134.859 104.469 135.214 104.469C135.636 104.469 136.003 104.365 136.315 104.165V102.64L136.309 102.646Z" fill="#3B3B3B"/>
<path d="M142.796 100.331V105.009H142.245L139.418 101.522V105.009H138.745V100.331H139.295L142.122 103.819V100.331H142.796Z" fill="#3B3B3B"/>
<path d="M0.299988 68.0742H5.15856V88.9145H0.299988V68.0742Z" fill="#3B3B3B"/>
<path d="M32.3824 68.0742V88.9145H28.3928L17.9291 76.2584V88.9145H13.1317V68.0742H17.152L27.5851 80.7303V68.0742H32.3824Z" fill="#3B3B3B"/>
<path d="M44.7063 72.0053H37.9875V68.0742H56.2776V72.0053H49.5588V88.9145H44.7002V72.0053H44.7063Z" fill="#3B3B3B"/>
<path d="M61.8888 68.0742H71.4223C73.6986 68.0742 75.7118 68.5056 77.4619 69.3684C79.2119 70.2312 80.5704 71.4463 81.5372 73.0139C82.504 74.5815 82.9935 76.4103 82.9935 78.4944C82.9935 80.5784 82.5101 82.4072 81.5372 83.9748C80.5704 85.5424 79.2058 86.7576 77.4619 87.6204C75.7179 88.4831 73.6986 88.9145 71.4223 88.9145H61.8888V68.0742ZM71.1837 84.953C73.2825 84.953 74.9592 84.3697 76.2075 83.2093C77.4558 82.0488 78.0799 80.4751 78.0799 78.4883C78.0799 76.5015 77.4558 74.9278 76.2075 73.7673C74.9592 72.6068 73.2825 72.0235 71.1837 72.0235H66.7473V84.947H71.1837V84.953Z" fill="#3B3B3B"/>
<path d="M105.903 85.0442V88.9145H89.6511V68.0742H105.512V71.9446H94.4791V76.4711H104.221V80.2199H94.4791V85.0442H105.903Z" fill="#3B3B3B"/>
<path d="M116.948 87.8878C115.217 86.9642 113.858 85.6822 112.873 84.0478C111.882 82.4134 111.386 80.5603 111.386 78.4945C111.386 76.4287 111.882 74.5816 112.873 72.9411C113.864 71.3006 115.223 70.0247 116.948 69.1011C118.674 68.1776 120.62 67.7158 122.78 67.7158C124.597 67.7158 126.243 68.0318 127.712 68.6697C129.181 69.3077 130.417 70.2191 131.414 71.41L128.293 74.2656C126.874 72.6373 125.117 71.8231 123.019 71.8231C121.721 71.8231 120.559 72.1087 119.543 72.6738C118.527 73.2388 117.732 74.0287 117.157 75.0434C116.587 76.058 116.3 77.2064 116.3 78.4945C116.3 79.7825 116.581 80.937 117.157 81.9456C117.726 82.9602 118.521 83.744 119.543 84.3152C120.565 84.8802 121.721 85.1658 123.019 85.1658C125.117 85.1658 126.874 84.3395 128.293 82.6929L131.414 85.5486C130.417 86.7577 129.174 87.6812 127.694 88.3192C126.213 88.9571 124.567 89.2731 122.749 89.2731C120.608 89.2731 118.674 88.8113 116.948 87.8878Z" fill="#3B3B3B"/>
<path d="M141.504 87.8756C139.754 86.94 138.384 85.6579 137.399 84.0174C136.407 82.377 135.912 80.542 135.912 78.4945C135.912 76.4469 136.407 74.612 137.399 72.9715C138.39 71.331 139.754 70.049 141.504 69.1133C143.254 68.1776 145.219 67.7158 147.397 67.7158C149.576 67.7158 151.534 68.1837 153.271 69.1133C155.009 70.049 156.38 71.331 157.377 72.9715C158.375 74.6059 158.877 76.453 158.877 78.4945C158.877 80.536 158.375 82.377 157.377 84.0174C156.38 85.6579 155.009 86.94 153.271 87.8756C151.534 88.8113 149.576 89.2731 147.397 89.2731C145.219 89.2731 143.254 88.8053 141.504 87.8756ZM150.757 84.3152C151.754 83.7501 152.543 82.9602 153.112 81.9456C153.681 80.9309 153.969 79.7825 153.969 78.4945C153.969 77.2064 153.681 76.0519 153.112 75.0434C152.543 74.0287 151.76 73.2449 150.757 72.6738C149.759 72.1087 148.639 71.8231 147.397 71.8231C146.155 71.8231 145.041 72.1087 144.038 72.6738C143.04 73.2388 142.251 74.0287 141.682 75.0434C141.113 76.058 140.825 77.2064 140.825 78.4945C140.825 79.7825 141.107 80.937 141.682 81.9456C142.251 82.9602 143.034 83.744 144.038 84.3152C145.035 84.8802 146.155 85.1658 147.397 85.1658C148.639 85.1658 149.753 84.8802 150.757 84.3152Z" fill="#3B3B3B"/>
</g>
<defs>
<clipPath id="clip0_1517_7884">
<rect width="158.583" height="106" fill="white" transform="translate(0.299988)"/>
</clipPath>
</defs>
</svg>
