<svg width="942" height="229" viewBox="0 0 942 229" fill="none" xmlns="http://www.w3.org/2000/svg">
<path d="M105.91 0H129L29.9228 160H4L105.91 0Z" fill="#0A3A54"/>
<g filter="url(#filter0_d_1594_7492)">
<path d="M26.4896 0H3.99994L100.501 160H125.75L26.4896 0Z" fill="#16BBB2"/>
</g>
<path d="M240.562 71.25H149V160H246.813V142.812H168.375V88.4375H240.562V71.25Z" fill="#0A3A54"/>
<path d="M358.375 71.25H266.812V160H364.625V142.812H286.188V88.4375H358.375V71.25Z" fill="#0A3A54"/>
<path d="M516.032 50.7985H497.173C496.057 45.3739 494.105 40.6084 491.317 36.5019C488.579 32.3954 485.233 28.948 481.279 26.1597C477.375 23.3207 473.041 21.1914 468.275 19.7719C463.51 18.3523 458.541 17.6426 453.37 17.6426C443.941 17.6426 435.398 20.0254 427.743 24.7909C420.138 29.5564 414.08 36.5779 409.568 45.8555C405.107 55.1331 402.876 66.5146 402.876 80C402.876 93.4854 405.107 104.867 409.568 114.144C414.08 123.422 420.138 130.444 427.743 135.209C435.398 139.975 443.941 142.357 453.37 142.357C458.541 142.357 463.51 141.648 468.275 140.228C473.041 138.809 477.375 136.705 481.279 133.916C485.233 131.077 488.579 127.605 491.317 123.498C494.105 119.341 496.057 114.575 497.173 109.202H516.032C514.612 117.161 512.027 124.284 508.275 130.57C504.524 136.857 499.859 142.205 494.283 146.616C488.706 150.976 482.445 154.297 475.5 156.578C468.605 158.859 461.228 160 453.37 160C440.088 160 428.275 156.755 417.933 150.266C407.591 143.777 399.454 134.55 393.522 122.586C387.591 110.621 384.625 96.4259 384.625 80C384.625 63.5742 387.591 49.379 393.522 37.4145C399.454 25.4499 407.591 16.2231 417.933 9.73384C428.275 3.24462 440.088 0 453.37 0C461.228 0 468.605 1.14069 475.5 3.42206C482.445 5.70343 488.706 9.04943 494.283 13.4601C499.859 17.82 504.524 23.1432 508.275 29.4297C512.027 35.6654 514.612 42.7883 516.032 50.7985Z" fill="#16BBB2"/>
<path d="M677.914 80C677.914 96.4259 674.948 110.621 669.017 122.586C663.085 134.55 654.948 143.777 644.606 150.266C634.264 156.755 622.451 160 609.169 160C595.886 160 584.074 156.755 573.731 150.266C563.389 143.777 555.252 134.55 549.321 122.586C543.389 110.621 540.423 96.4259 540.423 80C540.423 63.5742 543.389 49.379 549.321 37.4145C555.252 25.4499 563.389 16.2231 573.731 9.73384C584.074 3.24462 595.886 0 609.169 0C622.451 0 634.264 3.24462 644.606 9.73384C654.948 16.2231 663.085 25.4499 669.017 37.4145C674.948 49.379 677.914 63.5742 677.914 80ZM659.663 80C659.663 66.5146 657.407 55.1331 652.895 45.8555C648.434 36.5779 642.375 29.5564 634.72 24.7909C627.115 20.0254 618.598 17.6426 609.169 17.6426C599.739 17.6426 591.197 20.0254 583.541 24.7909C575.937 29.5564 569.878 36.5779 565.366 45.8555C560.905 55.1331 558.674 66.5146 558.674 80C558.674 93.4854 560.905 104.867 565.366 114.144C569.878 123.422 575.937 130.444 583.541 135.209C591.197 139.975 599.739 142.357 609.169 142.357C618.598 142.357 627.115 139.975 634.72 135.209C642.375 130.444 648.434 123.422 652.895 114.144C657.407 104.867 659.663 93.4854 659.663 80Z" fill="#16BBB2"/>
<path fill-rule="evenodd" clip-rule="evenodd" d="M697.914 160H747.289C763.539 160 777.341 156.797 788.695 150.391C800.049 143.932 808.695 134.714 814.633 122.734C820.57 110.703 823.539 96.3542 823.539 79.6875C823.539 63.125 820.596 48.9063 814.711 37.0313C808.826 25.1042 800.362 15.9635 789.32 9.60938C778.279 3.20313 764.997 0 749.477 0H697.914L697.914 101.5H717.289L717.289 17.1875H748.227C760.727 17.1875 771.169 19.7135 779.555 24.7656C787.94 29.7656 794.242 36.9531 798.461 46.3281C802.68 55.651 804.789 66.7708 804.789 79.6875C804.789 92.7083 802.654 103.932 798.383 113.359C794.112 122.786 787.628 130.052 778.93 135.156C770.232 140.26 759.268 142.812 746.039 142.812H717.289H697.914V160Z" fill="#16BBB2"/>
<path d="M843.539 160V0H940.102V17.1875H862.914V71.25H935.102V88.4375H862.914V142.812H941.352V160H843.539Z" fill="#16BBB2"/>
<rect x="115" width="250" height="16" fill="#0A3A54"/>
<path d="M21.1905 200.542C21.0838 199.466 20.626 198.631 19.8169 198.035C19.0078 197.439 17.9098 197.142 16.5228 197.142C15.5804 197.142 14.7846 197.275 14.1356 197.542C13.4866 197.799 12.9887 198.16 12.6419 198.622C12.3041 199.084 12.1352 199.609 12.1352 200.196C12.1174 200.685 12.2196 201.111 12.4419 201.476C12.6731 201.84 12.9887 202.156 13.3888 202.423C13.7889 202.681 14.2512 202.907 14.7758 203.103C15.3003 203.29 15.8604 203.45 16.4561 203.583L18.91 204.17C20.1014 204.436 21.195 204.792 22.1908 205.237C23.1865 205.681 24.049 206.228 24.778 206.877C25.5071 207.526 26.0716 208.291 26.4717 209.171C26.8807 210.051 27.0896 211.06 27.0985 212.198C27.0896 213.87 26.6629 215.319 25.8182 216.546C24.9825 217.764 23.7733 218.711 22.1908 219.387C20.6171 220.053 18.7189 220.387 16.4961 220.387C14.2912 220.387 12.3708 220.049 10.7348 219.373C9.10782 218.697 7.83642 217.697 6.92066 216.373C6.01379 215.039 5.53812 213.39 5.49367 211.425H11.0816C11.1438 212.34 11.4061 213.105 11.8684 213.719C12.3397 214.323 12.9665 214.781 13.7489 215.092C14.5401 215.395 15.4337 215.546 16.4295 215.546C17.4075 215.546 18.2565 215.403 18.9767 215.119C19.7058 214.834 20.2703 214.439 20.6704 213.932C21.0705 213.425 21.2706 212.843 21.2706 212.185C21.2706 211.571 21.0883 211.056 20.7238 210.638C20.3681 210.22 19.8436 209.864 19.1501 209.571C18.4655 209.278 17.6253 209.011 16.6295 208.771L13.6555 208.024C11.3528 207.464 9.53458 206.588 8.20094 205.397C6.86731 204.205 6.20494 202.601 6.21383 200.582C6.20494 198.929 6.64504 197.484 7.53413 196.248C8.43211 195.012 9.6635 194.047 11.2283 193.354C12.7931 192.661 14.5713 192.314 16.5628 192.314C18.5899 192.314 20.3592 192.661 21.8707 193.354C23.391 194.047 24.5735 195.012 25.4181 196.248C26.2628 197.484 26.6984 198.915 26.7251 200.542H21.1905ZM144.712 206.344C144.712 209.322 144.147 211.856 143.018 213.945C141.898 216.035 140.369 217.631 138.43 218.733C136.501 219.827 134.332 220.373 131.922 220.373C129.495 220.373 127.317 219.822 125.387 218.72C123.458 217.617 121.933 216.021 120.813 213.932C119.693 211.843 119.133 209.313 119.133 206.344C119.133 203.365 119.693 200.831 120.813 198.742C121.933 196.653 123.458 195.061 125.387 193.967C127.317 192.865 129.495 192.314 131.922 192.314C134.332 192.314 136.501 192.865 138.43 193.967C140.369 195.061 141.898 196.653 143.018 198.742C144.147 200.831 144.712 203.365 144.712 206.344ZM138.857 206.344C138.857 204.414 138.568 202.787 137.99 201.462C137.421 200.138 136.617 199.133 135.576 198.448C134.536 197.764 133.318 197.422 131.922 197.422C130.526 197.422 129.308 197.764 128.268 198.448C127.228 199.133 126.419 200.138 125.841 201.462C125.272 202.787 124.987 204.414 124.987 206.344C124.987 208.273 125.272 209.9 125.841 211.225C126.419 212.549 127.228 213.554 128.268 214.239C129.308 214.923 130.526 215.266 131.922 215.266C133.318 215.266 134.536 214.923 135.576 214.239C136.617 213.554 137.421 212.549 137.99 211.225C138.568 209.9 138.857 208.273 138.857 206.344ZM237.619 220V192.687H243.394V215.239H255.103V220H237.619ZM364.428 192.687H370.203V210.425C370.203 212.416 369.727 214.159 368.776 215.652C367.833 217.146 366.513 218.311 364.815 219.146C363.117 219.973 361.138 220.387 358.88 220.387C356.613 220.387 354.63 219.973 352.932 219.146C351.234 218.311 349.914 217.146 348.971 215.652C348.029 214.159 347.558 212.416 347.558 210.425V192.687H353.332V209.931C353.332 210.971 353.559 211.896 354.012 212.705C354.475 213.514 355.124 214.15 355.96 214.612C356.795 215.074 357.769 215.306 358.88 215.306C360 215.306 360.974 215.074 361.801 214.612C362.637 214.15 363.281 213.514 363.735 212.705C364.197 211.896 364.428 210.971 364.428 209.931V192.687ZM462.544 197.448V192.687H484.975V197.448H476.613V220H470.906V197.448H462.544ZM583.074 192.687V220H577.3V192.687H583.074ZM701.554 206.344C701.554 209.322 700.99 211.856 699.861 213.945C698.74 216.035 697.211 217.631 695.273 218.733C693.344 219.827 691.174 220.373 688.765 220.373C686.338 220.373 684.159 219.822 682.23 218.72C680.301 217.617 678.776 216.021 677.656 213.932C676.535 211.843 675.975 209.313 675.975 206.344C675.975 203.365 676.535 200.831 677.656 198.742C678.776 196.653 680.301 195.061 682.23 193.967C684.159 192.865 686.338 192.314 688.765 192.314C691.174 192.314 693.344 192.865 695.273 193.967C697.211 195.061 698.74 196.653 699.861 198.742C700.99 200.831 701.554 203.365 701.554 206.344ZM695.7 206.344C695.7 204.414 695.411 202.787 694.833 201.462C694.264 200.138 693.459 199.133 692.419 198.448C691.379 197.764 690.161 197.422 688.765 197.422C687.369 197.422 686.151 197.764 685.111 198.448C684.07 199.133 683.261 200.138 682.683 201.462C682.114 202.787 681.83 204.414 681.83 206.344C681.83 208.273 682.114 209.9 682.683 211.225C683.261 212.549 684.07 213.554 685.111 214.239C686.151 214.923 687.369 215.266 688.765 215.266C690.161 215.266 691.379 214.923 692.419 214.239C693.459 213.554 694.264 212.549 694.833 211.225C695.411 209.9 695.7 208.273 695.7 206.344ZM817.307 192.687V220H812.319L800.437 202.809H800.237V220H794.462V192.687H799.53L811.319 209.864H811.559V192.687H817.307ZM925.525 200.542C925.418 199.466 924.96 198.631 924.151 198.035C923.342 197.439 922.244 197.142 920.857 197.142C919.915 197.142 919.119 197.275 918.47 197.542C917.821 197.799 917.323 198.16 916.976 198.622C916.638 199.084 916.47 199.609 916.47 200.196C916.452 200.685 916.554 201.111 916.776 201.476C917.007 201.84 917.323 202.156 917.723 202.423C918.123 202.681 918.586 202.907 919.11 203.103C919.635 203.29 920.195 203.45 920.79 203.583L923.244 204.17C924.436 204.436 925.529 204.792 926.525 205.237C927.521 205.681 928.383 206.228 929.112 206.877C929.841 207.526 930.406 208.291 930.806 209.171C931.215 210.051 931.424 211.06 931.433 212.198C931.424 213.87 930.997 215.319 930.153 216.546C929.317 217.764 928.108 218.711 926.525 219.387C924.951 220.053 923.053 220.387 920.83 220.387C918.626 220.387 916.705 220.049 915.069 219.373C913.442 218.697 912.171 217.697 911.255 216.373C910.348 215.039 909.872 213.39 909.828 211.425H915.416C915.478 212.34 915.74 213.105 916.203 213.719C916.674 214.323 917.301 214.781 918.083 215.092C918.874 215.395 919.768 215.546 920.764 215.546C921.742 215.546 922.591 215.403 923.311 215.119C924.04 214.834 924.605 214.439 925.005 213.932C925.405 213.425 925.605 212.843 925.605 212.185C925.605 211.571 925.423 211.056 925.058 210.638C924.702 210.22 924.178 209.864 923.484 209.571C922.8 209.278 921.96 209.011 920.964 208.771L917.99 208.024C915.687 207.464 913.869 206.588 912.535 205.397C911.202 204.205 910.539 202.601 910.548 200.582C910.539 198.929 910.979 197.484 911.868 196.248C912.766 195.012 913.998 194.047 915.563 193.354C917.127 192.661 918.906 192.314 920.897 192.314C922.924 192.314 924.694 192.661 926.205 193.354C927.725 194.047 928.908 195.012 929.752 196.248C930.597 197.484 931.033 198.915 931.059 200.542H925.525Z" fill="#0A3A54"/>
<defs>
<filter id="filter0_d_1594_7492" x="0" y="0" width="129.75" height="168" filterUnits="userSpaceOnUse" color-interpolation-filters="sRGB">
<feFlood flood-opacity="0" result="BackgroundImageFix"/>
<feColorMatrix in="SourceAlpha" type="matrix" values="0 0 0 0 0 0 0 0 0 0 0 0 0 0 0 0 0 0 127 0" result="hardAlpha"/>
<feOffset dy="4"/>
<feGaussianBlur stdDeviation="2"/>
<feComposite in2="hardAlpha" operator="out"/>
<feColorMatrix type="matrix" values="0 0 0 0 0 0 0 0 0 0 0 0 0 0 0 0 0 0 0.25 0"/>
<feBlend mode="normal" in2="BackgroundImageFix" result="effect1_dropShadow_1594_7492"/>
<feBlend mode="normal" in="SourceGraphic" in2="effect1_dropShadow_1594_7492" result="shape"/>
</filter>
</defs>
</svg>
